PathFileType	4	(X/Y/Z)	52_2_34_p0_0-340_filt_butterworth.trc
DataRate	CameraRate	NumFrames	NumMarkers	Units	OrigDataRate	OrigDataStartFrame	OrigNumFrames
39.0	39.0	7	27	m	39.0	127	340
Frame#	Time	RHip			RKnee			RAnkle			RBigToe			RSmallToe			RHeel			LHip			LKnee			LAnkle			LBigToe			LSmallToe			LHeel			Neck			Head			Nose			RShoulder			RElbow			RWrist			RThumb			RIndex			RPinky			LShoulder			LElbow			LWrist			LThumb			LIndex			LPinky			
		X1	Y1	Z1	X2	Y2	Z2	X3	Y3	Z3	X4	Y4	Z4	X5	Y5	Z5	X6	Y6	Z6	X7	Y7	Z7	X8	Y8	Z8	X9	Y9	Z9	X10	Y10	Z10	X11	Y11	Z11	X12	Y12	Z12	X13	Y13	Z13	X14	Y14	Z14	X15	Y15	Z15	X16	Y16	Z16	X17	Y17	Z17	X18	Y18	Z18	X19	Y19	Z19	X20	Y20	Z20	X21	Y21	Z21	X22	Y22	Z22	X23	Y23	Z23	X24	Y24	Z24	X25	Y25	Z25	X26	Y26	Z26	X27	Y27	Z27	
127	3.2564102564102564	0.224740751209427	0.5711909861063373	0.4779837327994738	0.12505267050200544	0.6638846168144534	0.8867342808005039	0.01782254060717742	0.8708555843458242	1.289277836748456	0.013279706367928738	0.6345587554457086	1.323243722534086	0.0727592901698187	0.6758231056069025	1.342214362169767	-0.00376365186138335	0.9136817806935793	1.3168293827209199	0.02295569742188218	0.5837137057898845	0.4441914678309527	-0.06305921874052656	0.6806608804813955	0.8293409699798472	-0.13815488751715843	0.8004829603052267	1.213590406464839	-0.13256356272170655	0.6108284903182183	1.2704482752365513	-0.1975003118819898	0.6536943512195471	1.258871388605931	-0.13322765340121873	0.8757013373977751	1.2819136465792076	0.22197315481323052	0.48195720834116107	0.004020490632319126	0.25913254765060706	0.3975060907586565	-0.21354852793716342	0.21606540856890202	0.3118500300017183	-0.08738268057149587	0.34515041652633116	0.4376575553324282	0.11468901075758603	0.35227272327175707	0.5638483980948432	0.39408804175602147	0.25221788933972755	0.43550691834697275	0.5726750876534006	0.1728859121003198	0.3603361774038755	0.646991649961949	0.1795862119676362	0.39040600623621136	0.6711309170179708	0.2081249409591912	0.41632417686923673	0.6806015343747884	0.07382116217938914	0.5092868723219626	0.057333305664587775	-0.031696567091521466	0.5661483204362632	0.2868034391638372	-0.12439570688053372	0.5351566586366643	0.4914188306902976	-0.12055855960376753	0.44192539494535155	0.5880493650374059	-0.15593670754271582	0.46233190801570323	0.5948336878739425	-0.1745287317018521	0.4838590317356444	0.58816394416406
128	3.282051282051282	0.2187170065231649	0.5784753941530112	0.47860269574887204	0.1219669375647058	0.6565735344727337	0.886793413938869	0.017745351179805354	0.8695899503849938	1.2868503604222101	0.013326639129972713	0.6337143700476511	1.321813060116562	0.07294561475827714	0.674839936166267	1.340719982987492	-0.003827976847175326	0.913743289372704	1.3169107124051302	0.023141469746463073	0.5831133567954092	0.4417445889119461	-0.0630434127797733	0.6818133394185706	0.8307186401331267	-0.13802156259422182	0.8007187114892265	1.213482993517099	-0.13257616014863452	0.6103759366591589	1.2702511405186785	-0.19659443366491902	0.6531701288625582	1.2576166637929886	-0.13416639689172655	0.8781877619118652	1.2868358330550254	0.22225808012078496	0.48196448672555203	0.0030519852733094303	0.262604141635358	0.3951137315159073	-0.21224332873458035	0.21905990308270543	0.312136631245411	-0.08560234141501508	0.34510579650808604	0.4376904111964024	0.11470921058472068	0.35006293437863434	0.5601394067765679	0.39207832304717793	0.2446697800579133	0.41260253246779793	0.5661781058216564	0.16687818663560533	0.33356032964884186	0.6327095353149795	0.17417911056004406	0.36637998264945637	0.6595200651422217	0.2019112822244648	0.4099018556324828	0.6747267030747468	0.07398302843705809	0.5087876746306355	0.05625399459496306	-0.035674793160188255	0.5622286077665435	0.28254494916556927	-0.12866933821902363	0.5098053087273207	0.48490214734493553	-0.1214632714630469	0.41981516076009595	0.5785908149440991	-0.16602212928247248	0.45755778866876656	0.5899300765684137	-0.17775119200816253	0.4821694211219997	0.5824886554416232
129	3.3076923076923075	0.214512685795489	0.5821487789574717	0.4782649326208186	0.12196467595149318	0.652563053400431	0.8862544276552664	0.01774363405629513	0.8686247099771075	1.2850580460814727	0.013469370426223598	0.6324375242842947	1.3192246918964987	0.07327634924862667	0.673579547880242	1.338117304814423	-0.0038451702199488406	0.9138319599025089	1.3168636565728318	0.0223475784083671	0.5861311049675222	0.4374688824676289	-0.06344180702432445	0.6833823374036307	0.8332784426768457	-0.1378935051189463	0.8007347772496933	1.2132892388924532	-0.13201881009586347	0.6103591534262017	1.2692088537715864	-0.19600609249332748	0.6533081770700292	1.2575792706199995	-0.1355576902483466	0.880602206156496	1.2924804366272953	0.2232738260664513	0.48564222538724944	0.0030130388202952883	0.26643131466184683	0.38928229369480843	-0.21166807082815575	0.22138229246360686	0.3128894425145111	-0.0847194080072675	0.34511089352016844	0.43776720449487183	0.11471619683000184	0.3454335906030115	0.5487374597376149	0.3882662045056447	0.23776213368297605	0.40176913212838916	0.5592848127953554	0.1624838642187362	0.31244492502158877	0.6175107102568512	0.1674255925235152	0.33630503766570863	0.6430954101432916	0.1926768867109821	0.4001937042230906	0.6668800390035619	0.07433888070571834	0.507775292564756	0.05430047256651695	-0.04120187437732365	0.5620978682996876	0.27674258511695843	-0.13140226254750523	0.48539027275743485	0.4741004463295764	-0.1197927973533643	0.40951418770001446	0.5674979068669088	-0.17388956877365874	0.44632162197185166	0.5825843998649596	-0.1793091872292273	0.47482441989108937	0.5699361214404322
130	3.333333333333333	0.21376134105563366	0.5821522560942766	0.47918781703486524	0.12385481602812219	0.652601186260543	0.8862512097905202	0.01776571969275141	0.868599169293621	1.285033356234535	0.013590731619828648	0.6317388551221956	1.3176730261517526	0.07347282917061405	0.672873313673439	1.336591373588713	-0.0038217321308974582	0.9138465330163845	1.316795912706297	0.02033662621888475	0.5928207062508299	0.43488708693725403	-0.06509723768879298	0.683808949507125	0.8357126042410508	-0.13839241111429734	0.800495460108659	1.2130783256782864	-0.13104225338766062	0.6100152920531677	1.2673059075562114	-0.19594710443657617	0.657954540943354	1.2591006026225378	-0.13638465949169834	0.881795632460745	1.2953729230222133	0.22492942193031146	0.492102337159117	0.0030922650505660937	0.2705799333976307	0.3846753852666342	-0.21236588216085453	0.2226389808264374	0.31391927043188383	-0.08546762938196699	0.3451826255228212	0.4378476943273022	0.11474959356601214	0.34151912177302657	0.5377321861745559	0.385609503527198	0.23478170218224143	0.4017505215224359	0.5531535680073465	0.16024734887476388	0.30247626352922585	0.6056629869074872	0.16282229695247316	0.31852957194942016	0.6324263986912544	0.18494627763288313	0.3909889313856859	0.6616871397926838	0.07487567332628298	0.5070645502258304	0.0522446789309737	-0.04370816530710443	0.5644043257506043	0.2722802261272244	-0.13075944159612085	0.4760932886861773	0.4664767417965767	-0.11655759882824127	0.4033992510681528	0.5599394900226663	-0.17305042266501172	0.42719987205197674	0.5753633535697884	-0.17848131671026118	0.4652150661545297	0.5607049183680577
131	3.358974358974359	0.21384744982088771	0.5820069082869157	0.48125878621461843	0.12345128896133312	0.6524425270731875	0.8881664603431503	0.017787448173371846	0.8687209772698194	1.28533222799638	0.01367819934340727	0.6317960683052888	1.317620868616193	0.07348896723023363	0.6728995563870048	1.336591069627997	-0.0037997528229042265	0.9137843652225319	1.3168243275732396	0.01857198431082789	0.5971902697829182	0.43519379917121515	-0.06688976022534665	0.6835047750821334	0.8375951037241371	-0.1394278695342862	0.8006144338410233	1.214719259725926	-0.1304578713914888	0.6097085272886846	1.2659638845970322	-0.19602010902996145	0.666039259280427	1.2614705614401218	-0.1364498743651858	0.881942478466291	1.2954883220356628	0.22570553506075947	0.49640476194174316	0.002979292608091902	0.2765281940871207	0.38343057683801895	-0.21180217565998727	0.22480361890294032	0.3133708565741359	-0.08562702095851096	0.34520996165544965	0.4378689121900021	0.11477240159811337	0.3406370575578558	0.5341253218191429	0.3850733719156844	0.23479420386535568	0.4030623605494279	0.5503230056084705	0.16013789830531922	0.3007242798232902	0.5999927101819024	0.16186259704970657	0.3134070433335474	0.6284012280761478	0.1812424734825484	0.3832605684111602	0.6591349266254942	0.0754254379926493	0.5068842742842148	0.05059913507496483	-0.043199891962835094	0.5646631381134293	0.27008312671520157	-0.12791087166382442	0.47249646515356736	0.4653458039692786	-0.11347902244555871	0.3932996606229606	0.5575916148323983	-0.1652004810306633	0.4007833393673272	0.5697625404202091	-0.17802253836460205	0.4597021048464439	0.5590610742173622
132	3.3846153846153846	0.21326047952791283	0.5820092782396362	0.4824451957536988	0.1205048413094299	0.6510640896593605	0.8917069397422033	0.017807965327691223	0.8686380210059901	1.285387811499501	0.013759634522221884	0.6319775734435836	1.3178374203785896	0.07347952106446828	0.6731327136324714	1.3368166386219094	-0.00382861013297935	0.9137489070972534	1.3169789822752518	0.017782719039559407	0.5972723576467239	0.4368709193020859	-0.06772044088888567	0.6834031360408838	0.8385159802512727	-0.14021915535855828	0.8010749880693618	1.2185279219038385	-0.130602417904385	0.6098589033679295	1.2659265432256288	-0.19603066056130922	0.6707145974597063	1.2628204715257656	-0.13641343353247745	0.8818599264133538	1.29524686213751	0.22550546029367163	0.496240692942577	0.0029322188046889404	0.2827533827405134	0.38411911557662876	-0.20990506037900167	0.22858548009790994	0.3098720291399773	-0.08468433313334478	0.3450101503605195	0.43779358584086814	0.11475377104718054	0.34113418719354005	0.5349980063600943	0.38519228127369803	0.23524241089729697	0.40306114782346086	0.5502800752620453	0.16070510983547714	0.30092926648064916	0.5987025177906626	0.16225668738440652	0.31157813498069004	0.6248797337312866	0.1799983922764983	0.37705187123452977	0.6568465968459166	0.07572051707885577	0.506863959566096	0.04979325711313504	-0.04210571046721236	0.5641439233111765	0.2685733256316353	-0.12657200542945884	0.4627993290842464	0.46575160762354156	-0.11174022970988964	0.3809929062439464	0.556745620566838	-0.15647810173149146	0.3724191106228658	0.5644631408124734	-0.17832451875763083	0.4589175141010917	0.5593234495185113
133	3.41025641025641	0.21277526956242349	0.5817231064954398	0.48235645137895344	0.11851706992921843	0.6501202645355462	0.8939780785381528	0.017795935845762858	0.8685500947802385	1.2854223398293263	0.013801108703033874	0.6320276914938922	1.3178292025446336	0.07352072944865116	0.6732314933887614	1.3368180140684753	-0.0038664953499778485	0.9137512634835367	1.317135931520744	0.017744537267458033	0.5958924357350773	0.4374908109885538	-0.06853755073253379	0.6829687957589523	0.8381576847207717	-0.1404148062555244	0.8011599549610808	1.2207896867579733	-0.13131229226108565	0.6101522674497389	1.267186512763221	-0.1960356928780045	0.6705750378162545	1.2628066418768438	-0.13651036557115218	0.8818026941445402	1.2953338299708212	0.22659133706821816	0.4916462360771351	0.003385933852361407	0.28589632480954574	0.38429080177187547	-0.209000744750522	0.2329693604289071	0.3080365042331555	-0.08461996117060286	0.3450634767963355	0.4378968563661979	0.1147935709681064	0.341279824786209	0.5355496394734698	0.38513741926421025	0.23529644803273347	0.40305088544376044	0.5506325267956289	0.16085691807542613	0.30083846223458355	0.598929958066642	0.1625153957276418	0.309871897470982	0.6212702008829198	0.1801209557642546	0.37412545475848147	0.6551361257742587	0.07577470687804447	0.5068224890064335	0.04975070201568193	-0.041671988915986266	0.5636407910717617	0.26751272652882596	-0.1270216773699229	0.45170756016125535	0.4640821125020052	-0.11055217450652177	0.3745372514762132	0.5549948470176038	-0.14741198011266385	0.35094075093516225	0.5577518166553528	-0.17803547934799285	0.4589672015008588	0.5579962865120989
